PathFileType	4	(X/Y/Z)	C:\Users\WrightLab\Desktop\Jo\P5V24.trc
DataRate	CameraRate	NumFrames	NumMarkers	Units	OrigDataRate	OrigDataStartFrame	OrigNumFrames
100.00	100.00	      7	19	mm	100.00	1016	      1161
Frame#	Time	Headset_Front			Headset_Back			Headset_Left			Headset_Right			Left_Shoulder			Right_Shoulder			Sternum			C7			Left Elbow			Right Elbow			Left Wrist			Right Wrist			Left ASIS			Right ASIS			S2			Left Knee			Right Knee			Left Ankle			Right Ankle			
		X1	Y1	Z1	X2	Y2	Z2	X3	Y3	Z3	X4	Y4	Z4	X5	Y5	Z5	X6	Y6	Z6	X7	Y7	Z7	X8	Y8	Z8	X9	Y9	Z9	X10	Y10	Z10	X11	Y11	Z11	X12	Y12	Z12	X13	Y13	Z13	X14	Y14	Z14	X15	Y15	Z15	X16	Y16	Z16	X17	Y17	Z17	X18	Y18	Z18	X19	Y19	Z19	

1016	10.150	-453.46313	1401.16333	17.14873	-540.72534	1508.87695	-38.21833							-185.81039	1526.48633	-213.59326	-573.36041	1413.90710	-176.50574				-415.06488	1532.82751	-315.45724	-212.86188	1332.09167	-132.39345	-693.93195	1166.13013	-132.22589	-71.16956	1277.00134	-265.52634	-720.76215	1029.54919	77.03358	-162.98666	942.91632	-187.82608	-442.79080	922.01514	-145.28627	-310.94919	1008.56781	-435.77301	-125.56452	503.18579	-233.73833	-483.48468	493.17331	-196.40108	-145.76079	91.46013	-380.43170	-443.29056	92.55435	-275.32870	
1017	10.160	-454.49963	1400.82520	17.04731	-542.69427	1508.36853	-37.85830							-186.82071	1526.76758	-213.55519	-574.21405	1413.64819	-176.13560	-310.57468	1554.92212	-14.75518	-416.12177	1532.81958	-315.29611	-213.26529	1332.35999	-132.58237	-694.53149	1165.89941	-132.05722	-71.83583	1277.37109	-264.60056	-721.62415	1029.83606	78.14824	-163.34740	943.00879	-187.74153	-443.30505	921.70660	-145.30379	-311.25876	1008.58020	-435.74463	-125.43382	503.19995	-233.89995	-484.04520	492.76776	-196.82274	-145.92944	91.21512	-379.87656	-443.26663	92.51364	-275.32120	
1018	10.170	-455.69312	1400.25171	17.86529	-543.45911	1507.76965	-37.64217							-187.71060	1526.66394	-213.04411	-575.12152	1413.29443	-175.94989	-312.87219	1554.20691	-17.81378	-417.15732	1532.75952	-314.74109	-213.88509	1332.52881	-132.18205	-695.24487	1165.88098	-131.99252	-71.21104	1277.90503	-263.97260	-723.01343	1030.55127	78.87182	-163.68858	943.39563	-187.85132	-443.79007	921.64600	-145.05284	-311.83224	1008.34796	-435.31036	-125.62595	503.17099	-233.75719	-484.62039	492.89529	-196.79703	-145.75668	91.46789	-380.42752	-443.31485	92.48766	-275.35269	
1019	10.180	-456.30515	1399.58521	15.81463	-544.48346	1508.16223	-38.27255							-189.71622	1526.84839	-213.46115	-575.90747	1413.38623	-175.67477				-418.26160	1532.82129	-315.01718	-214.15736	1332.98389	-132.22980	-695.82434	1165.68018	-131.74510	-72.30307	1278.13062	-262.60425	-724.22876	1031.89978	78.24341	-164.20529	943.91620	-187.60699	-444.34485	921.18134	-145.19925	-312.23389	1008.31348	-435.04257	-125.46858	503.10928	-234.16095	-484.68146	492.89746	-196.82384	-145.66457	91.31274	-380.07233	-443.31342	92.46670	-275.38007	
1020	10.190	-457.84729	1399.80798	17.89209	-545.38855	1507.33313	-37.66804							-190.37807	1526.79871	-213.27390	-576.40289	1413.49377	-175.87602	-314.27487	1554.38770	-16.87655	-419.10648	1532.58618	-314.79120	-215.11584	1332.78979	-131.82695	-696.62158	1165.62976	-131.23619	-73.77954	1277.95923	-261.24048	-724.55469	1032.42529	78.70382	-164.32634	944.01563	-188.02779	-444.70758	920.79480	-146.11632	-312.76175	1008.08905	-434.70773	-125.59966	503.17285	-234.60999	-484.76343	492.89594	-196.85837	-146.04968	91.18076	-380.27444	-443.33264	92.47513	-275.74994	
1021	10.200	-458.53876	1399.81787	17.03936	-546.27075	1506.98523	-37.76741							-191.44244	1526.28491	-214.24937	-577.53430	1412.82349	-175.58464	-315.87335	1553.82361	-19.23977	-420.03677	1532.67773	-314.89084	-216.59654	1333.38538	-132.10397	-697.46234	1165.55444	-131.35794	-74.29504	1278.17529	-262.08704	-725.60486	1033.16785	78.92256	-165.30812	944.32758	-188.07980	-444.96820	920.68677	-146.00122	-313.12302	1008.10370	-434.67471	-125.60145	503.26572	-235.26265	-484.83301	492.74466	-197.20216	-145.77872	91.26307	-380.60309	-443.35004	92.42538	-275.77890	
1022	10.210	-458.98209	1399.11890	16.48675	-547.78992	1506.72571	-37.26554							-192.08240	1525.97876	-213.78705	-577.88513	1412.83423	-175.36731	-316.90497	1553.35022	-16.84933	-420.90781	1532.38159	-314.50305	-217.72589	1332.99866	-132.08578	-698.54028	1165.42688	-131.20958	-74.78284	1278.80566	-262.56369	-726.44165	1033.51306	79.28966	-165.60797	944.76251	-188.13718	-445.45276	920.53064	-145.94096	-313.81912	1008.17291	-434.48395	-125.69097	503.27026	-235.28287	-485.07431	492.36151	-197.35612	-145.95764	91.27459	-380.47906	-443.47418	92.15500	-275.47192	
